HIERARCHY
ROOT Hips
{
	OFFSET 0.00 0.00 0.00
	CHANNELS 6 Xposition Yposition Zposition Xrotation Yrotation Zrotation
	JOINT RightUpLeg
	{
		OFFSET -4.47808 0.00000 0.00000
		CHANNELS 3 Xrotation Yrotation Zrotation
		JOINT RightLeg
		{
			OFFSET 0.00000 -16.40577 0.00000
			CHANNELS 3 Xrotation Yrotation Zrotation
			JOINT RightFoot
			{
				OFFSET 0.00000 -14.64414 0.00000
				CHANNELS 3 Xrotation Yrotation Zrotation
				JOINT RightToeBase
				{
					OFFSET 0.00000 -1.50274 5.60831
					CHANNELS 3 Xrotation Yrotation Zrotation
					End Site
					{
						OFFSET 0.00000 0.00000 2.95275
					}
				}
			}
		}
	}
	JOINT LeftUpLeg
	{
		OFFSET 4.47808 0.00000 0.00000
		CHANNELS 3 Xrotation Yrotation Zrotation
		JOINT LeftLeg
		{
			OFFSET 0.00000 -16.40577 0.00000
			CHANNELS 3 Xrotation Yrotation Zrotation
			JOINT LeftFoot
			{
				OFFSET 0.00000 -14.64414 0.00000
				CHANNELS 3 Xrotation Yrotation Zrotation
				JOINT LeftToeBase
				{
					OFFSET 0.00000 -1.50274 5.60831
					CHANNELS 3 Xrotation Yrotation Zrotation
					End Site
					{
						OFFSET 0.00000 0.00000 2.95275
					}
				}
			}
		}
	}
	JOINT Spine
	{
		OFFSET 0.00000 6.06821 0.00000
		CHANNELS 3 Xrotation Yrotation Zrotation
		JOINT RightShoulder
		{
			OFFSET 0.00000 10.01392 0.00000
			CHANNELS 3 Xrotation Yrotation Zrotation
			JOINT RightArm
			{
				OFFSET -7.19022 0.00000 0.00000
				CHANNELS 3 Xrotation Yrotation Zrotation
				JOINT RightForeArm
				{
					OFFSET -10.17747 0.00000 0.00000
					CHANNELS 3 Yrotation Zrotation Xrotation
					JOINT RightHand
					{
						OFFSET -8.39211 0.00000 0.00000
						CHANNELS 3 Xrotation Yrotation Zrotation
						End Site
						{
							OFFSET -3.93700 0.00000 0.00000
						}
						JOINT RightHandThumb1
						{
							OFFSET 0.00000 0.00000 0.00000
							CHANNELS 3 Xrotation Zrotation Yrotation
							End Site
							{
								OFFSET 0.00000 0.00000 3.93700
							}
						}
					}
				}
			}
		}
		JOINT LeftShoulder
		{
			OFFSET 0.00000 10.01392 0.00000
			CHANNELS 3 Xrotation Yrotation Zrotation
			JOINT LeftArm
			{
				OFFSET 7.19022 0.00000 0.00000
				CHANNELS 3 Xrotation Yrotation Zrotation
				JOINT LeftForeArm
				{
					OFFSET 10.17747 0.00000 0.00000
					CHANNELS 3 Yrotation Zrotation Xrotation
					JOINT LeftHand
					{
						OFFSET 8.39211 0.00000 0.00000
						CHANNELS 3 Xrotation Yrotation Zrotation
						End Site
						{
							OFFSET 3.93700 0.00000 0.00000
						}
						JOINT LeftHandThumb1
						{
							OFFSET 0.00000 0.00000 0.00000
							CHANNELS 3 Xrotation Zrotation Yrotation
							End Site
							{
								OFFSET 0.00000 0.00000 3.93700
							}
						}
					}
				}
			}
		}
		JOINT Head
		{
			OFFSET 0.00000 15.77748 0.00000
			CHANNELS 3 Xrotation Yrotation Zrotation
			End Site
			{
				OFFSET 0.00000 4.52755 0.00000
			}
		}
	}
}
MOTION
Frames: 23
Frame Time: 0.008333
 -2.6060 33.0498 -0.2990 8.6160 -3.6996 2.9308 -2.7008 -7.0530 -3.0930 -0.5466 0.0000 0.0000 -10.9586 -6.6026 1.5823 5.7154 -0.0000 0.0000 -2.0871 5.8220 3.4364 1.6889 -0.0000 -0.0000 -10.2082 7.1200 -10.3786 7.7230 0.0000 0.0000 -8.5472 -1.6193 -0.8463 5.3585 -21.9665 -27.2136 -33.8809 -0.6326 34.1784 12.3509 0.0000 10.2548 -1.3432 12.6252 6.1232 32.8623 0.0000 -24.3270 -6.6561 24.1583 32.2357 -28.6526 1.2734 -30.5902 -1.6359 0.0000 19.4498 0.2454 1.6313 -8.5572 33.1476 -0.0000 26.2537 -3.6933 5.1925 -0.7840
 -2.6105 33.0502 -0.3128 8.6275 -3.7276 2.9404 -2.7166 -7.0377 -3.0843 -0.5970 0.0000 -0.0000 -10.9239 -6.5923 1.5770 5.7035 0.0000 0.0000 -2.1325 5.8797 3.4356 1.7170 0.0000 0.0000 -10.2080 7.1013 -10.3547 7.7412 -0.0000 0.0000 -8.4936 -1.6282 -0.8529 5.5051 -22.1808 -27.1702 -34.0062 -1.0603 34.2899 12.4041 0.0000 10.1856 -1.2843 12.7139 5.8164 32.8623 0.0000 -24.3270 -6.5654 24.3626 32.1979 -28.6881 1.6234 -30.7172 -1.6548 0.0000 19.3634 0.2416 1.6000 -8.5896 33.1476 -0.0000 26.2537 -3.6954 5.2503 -0.7671
 -2.6169 33.0515 -0.3314 8.6626 -3.7688 2.9437 -2.7859 -7.0000 -3.0700 -0.5962 0.0000 0.0000 -10.8975 -6.5811 1.5535 5.6756 0.0000 0.0000 -2.2129 5.9292 3.4532 1.7575 0.0000 -0.0000 -10.2070 7.0967 -10.3723 7.7642 0.0000 0.0000 -8.4535 -1.6133 -0.8572 5.6017 -22.3690 -27.1303 -34.0347 -1.4736 34.3991 12.4595 0.0000 9.9870 -1.2731 12.9220 5.6752 32.8623 0.0000 -24.3270 -6.5137 24.5299 32.1587 -28.7641 1.9612 -30.8196 -1.5905 0.0000 19.2393 0.2505 1.6764 -8.5008 33.1476 -0.0000 26.2537 -3.7186 5.2770 -0.7418
 -2.6224 33.0535 -0.3504 8.6892 -3.8007 2.9592 -2.8508 -6.9661 -3.0723 -0.5928 -0.0000 -0.0000 -10.8792 -6.5583 1.5418 5.7429 0.0000 -0.0000 -2.2923 5.9901 3.4600 1.8023 0.0000 0.0000 -10.1857 7.0564 -10.4285 7.7694 -0.0000 0.0000 -8.3973 -1.5868 -0.8786 5.6757 -22.5634 -27.1207 -34.0901 -1.9182 34.5427 12.5422 0.0000 10.0253 -1.2004 12.8563 5.3797 32.8623 0.0000 -24.3270 -6.4593 24.7136 32.1214 -28.8678 2.2865 -30.9594 -1.5736 0.0000 19.1459 0.2482 1.6851 -8.3799 33.1476 -0.0000 26.2537 -3.7473 5.3060 -0.7582
 -2.6230 33.0549 -0.3636 8.7237 -3.8425 2.9765 -2.9067 -6.9490 -3.0867 -0.6128 -0.0000 -0.0000 -10.8407 -6.5248 1.5773 5.7214 0.0000 -0.0000 -2.3503 6.0419 3.4490 1.8231 -0.0000 0.0000 -10.1760 7.0439 -10.3948 7.7580 -0.0000 -0.0000 -8.3903 -1.5902 -0.8661 5.8404 -22.7800 -27.0988 -34.1488 -2.2053 34.6736 12.5478 0.0000 9.8669 -1.2137 12.8815 5.4288 32.8623 0.0000 -24.3270 -6.3594 24.9064 32.0346 -28.9123 2.5716 -31.0635 -1.5309 0.0000 19.1694 0.2355 1.5841 -8.4580 33.1476 -0.0000 26.2537 -3.7066 5.2733 -0.7598
 -2.6273 33.0561 -0.3819 8.7522 -3.8680 2.9868 -2.9746 -6.9265 -3.0876 -0.5989 -0.0000 -0.0000 -10.8297 -6.5035 1.5884 5.7242 -0.0000 0.0000 -2.4299 6.0868 3.4540 1.8729 -0.0000 0.0000 -10.1723 7.0195 -10.4143 7.7214 0.0000 -0.0000 -8.3499 -1.5771 -0.8812 6.0585 -23.0413 -26.9866 -34.1844 -2.3842 34.7680 12.5276 0.0000 9.6915 -1.1828 12.8207 5.3160 32.8623 0.0000 -24.3270 -6.2950 25.0658 31.9783 -28.9538 2.8514 -31.1755 -1.5096 0.0000 19.1757 0.2362 1.5861 -8.4697 33.1476 -0.0000 26.2537 -3.7086 5.2394 -0.7302
 -2.6330 33.0570 -0.3970 8.7604 -3.8552 2.9964 -3.0023 -6.9368 -3.0839 -0.6115 0.0000 0.0000 -10.8156 -6.5024 1.5676 5.7358 -0.0000 -0.0000 -2.4935 6.1219 3.4599 1.9237 -0.0000 0.0000 -10.1654 6.9649 -10.4346 7.7078 0.0000 0.0000 -8.3048 -1.5851 -0.9133 6.2042 -23.2446 -26.9243 -34.0886 -2.6022 34.8899 12.5313 0.0000 9.5772 -1.1450 12.6787 5.2033 32.8623 0.0000 -24.3270 -6.1992 25.2308 31.9397 -29.0186 3.0976 -31.3210 -1.4616 0.0000 19.1870 0.2258 1.5208 -8.4450 33.1476 -0.0000 26.2537 -3.6822 5.2780 -0.7189
 -2.6400 33.0584 -0.4150 8.7837 -3.8561 2.9972 -3.0585 -6.9305 -3.0717 -0.6043 -0.0000 -0.0000 -10.7935 -6.4882 1.5491 5.6672 0.0000 -0.0000 -2.5847 6.1385 3.4789 1.9965 -0.0000 0.0000 -10.1722 6.9447 -10.4266 7.6986 0.0000 -0.0000 -8.2705 -1.5797 -0.9209 6.3070 -23.4257 -26.8959 -34.0315 -2.8706 35.0283 12.5186 0.0000 9.5894 -1.1042 12.6770 5.0193 32.8623 0.0000 -24.3270 -6.1670 25.3141 31.8903 -28.9765 3.3491 -31.4156 -1.4223 0.0000 19.1646 0.2287 1.5585 -8.3496 33.1476 -0.0000 26.2537 -3.6632 5.2906 -0.7135
 -2.6484 33.0589 -0.4260 8.7645 -3.8529 2.9956 -3.0434 -6.9283 -3.0576 -0.6289 -0.0000 -0.0000 -10.7798 -6.4762 1.5475 5.7631 0.0000 -0.0000 -2.6139 6.2019 3.4997 2.0439 -0.0000 -0.0000 -10.1761 6.8748 -10.4538 7.7067 0.0000 -0.0000 -8.2150 -1.5870 -0.9472 6.5271 -23.6445 -26.8187 -34.0004 -3.0714 35.1765 12.4822 0.0000 9.4253 -1.1137 12.6933 5.0559 32.8623 0.0000 -24.3270 -6.0840 25.4196 31.8487 -28.9769 3.5921 -31.5087 -1.3790 0.0000 19.1071 0.2285 1.5409 -8.4376 33.1476 -0.0000 26.2537 -3.6032 5.2620 -0.6840
 -2.6551 33.0602 -0.4422 8.7730 -3.8384 2.9916 -3.0731 -6.9472 -3.0421 -0.6378 -0.0000 -0.0000 -10.7490 -6.4568 1.5607 5.7267 0.0000 -0.0000 -2.6871 6.2098 3.5197 2.1088 -0.0000 0.0000 -10.1784 6.8446 -10.4475 7.7010 -0.0000 -0.0000 -8.1775 -1.5978 -0.9602 6.5571 -23.7688 -26.8254 -33.8739 -3.3563 35.3275 12.4655 0.0000 9.4260 -1.0974 12.6458 5.0006 32.8623 0.0000 -24.3270 -6.0583 25.4917 31.8194 -28.9467 3.8338 -31.6126 -1.3386 0.0000 19.0127 0.2390 1.6020 -8.4860 33.1476 -0.0000 26.2537 -3.5609 5.2444 -0.6668
 -2.6654 33.0625 -0.4626 8.8188 -3.8408 2.9747 -3.1586 -6.8930 -3.0029 -0.6135 0.0000 0.0000 -10.7266 -6.4849 1.5161 5.7510 0.0000 -0.0000 -2.8177 6.2681 3.5680 2.1948 0.0000 0.0000 -10.1915 6.7705 -10.4372 7.6612 -0.0000 0.0000 -8.1801 -1.5955 -0.9692 6.6809 -23.9562 -26.7731 -33.8589 -3.5651 35.4943 12.3759 0.0000 9.3420 -1.0856 12.5541 4.9824 32.8623 0.0000 -24.3270 -6.0109 25.5918 31.7917 -28.9841 4.0500 -31.7138 -1.2470 0.0000 19.0212 0.2229 1.4845 -8.5407 33.1476 -0.0000 26.2537 -3.5115 5.2293 -0.6323
 -2.6718 33.0640 -0.4789 8.8178 -3.8096 2.9724 -3.1775 -6.9455 -2.9888 -0.6251 -0.0000 -0.0000 -10.6930 -6.4667 1.5305 5.6993 -0.0000 -0.0000 -2.8944 6.2944 3.5822 2.2690 0.0000 0.0000 -10.1911 6.7283 -10.4597 7.6781 -0.0000 -0.0000 -8.1405 -1.6362 -0.9893 6.9632 -24.2482 -26.6148 -34.0501 -3.6660 35.6290 12.2659 0.0000 9.3497 -1.0867 12.4741 5.0189 32.8623 0.0000 -24.3270 -5.9712 25.6786 31.7641 -28.9742 4.2542 -31.8115 -1.1840 0.0000 18.9356 0.2310 1.5163 -8.6642 33.1476 -0.0000 26.2537 -3.4506 5.2027 -0.6320
 -2.6796 33.0659 -0.4956 8.8221 -3.7981 2.9649 -3.2099 -6.9507 -2.9681 -0.6187 -0.0000 -0.0000 -10.6755 -6.4552 1.5089 5.7275 0.0000 0.0000 -2.9776 6.3610 3.6086 2.3495 0.0000 0.0000 -10.1895 6.6496 -10.4613 7.6045 0.0000 -0.0000 -8.1120 -1.6492 -1.0088 7.0990 -24.4009 -26.5334 -34.0626 -3.8901 35.7494 12.2278 0.0000 9.2960 -1.1061 12.5111 5.0932 32.8623 0.0000 -24.3270 -5.9385 25.7297 31.7256 -29.0006 4.4734 -31.8736 -1.1205 0.0000 18.9288 0.2436 1.5808 -8.7604 33.1476 -0.0000 26.2537 -3.3818 5.1985 -0.6086
 -2.6877 33.0680 -0.5124 8.8452 -3.8016 2.9553 -3.2651 -6.9412 -2.9437 -0.6051 -0.0000 -0.0000 -10.6444 -6.4542 1.5427 5.7154 -0.0000 -0.0000 -3.0703 6.4341 3.6388 2.4210 0.0000 -0.0000 -10.1969 6.5713 -10.4426 7.6010 -0.0000 -0.0000 -8.1152 -1.6284 -1.0233 7.1067 -24.4693 -26.5039 -33.8205 -4.0290 35.8511 12.1229 0.0000 9.2096 -1.1041 12.4573 5.1054 32.8623 0.0000 -24.3270 -5.9040 25.7642 31.6819 -29.0018 4.6317 -31.9222 -1.0304 0.0000 18.9826 0.2336 1.4923 -8.8986 33.1476 -0.0000 26.2537 -3.2833 5.1475 -0.5981
 -2.6954 33.0696 -0.5271 8.8418 -3.7843 2.9497 -3.2796 -6.9839 -2.9256 -0.6171 0.0000 -0.0000 -10.6214 -6.4177 1.5145 5.7707 0.0000 -0.0000 -3.1151 6.4144 3.6587 2.4559 0.0000 0.0000 -10.1920 6.5655 -10.4170 7.6023 0.0000 -0.0000 -8.0881 -1.6481 -1.0504 7.2406 -24.6108 -26.4129 -33.7800 -4.1870 35.9736 12.0198 0.0000 9.1945 -1.1063 12.6023 5.0582 32.8623 0.0000 -24.3270 -5.8534 25.8546 31.6494 -29.0246 4.7436 -32.0097 -0.9233 0.0000 18.9482 0.2373 1.5244 -8.8482 33.1476 -0.0000 26.2537 -3.2038 5.1256 -0.5810
 -2.7031 33.0721 -0.5462 8.8921 -3.7811 2.9384 -3.3610 -6.9866 -2.8978 -0.6133 0.0000 0.0000 -10.5893 -6.3977 1.5063 5.7964 -0.0000 -0.0000 -3.2459 6.4949 3.6932 2.5307 -0.0000 -0.0000 -10.1882 6.4774 -10.4248 7.5417 0.0000 0.0000 -8.1253 -1.6433 -1.0576 7.3609 -24.7526 -26.3442 -33.9097 -4.4441 36.0854 11.9312 0.0000 9.2682 -1.1736 12.5580 5.3827 32.8623 0.0000 -24.3270 -5.8269 25.9156 31.6261 -29.0356 4.8324 -32.0875 -0.8042 0.0000 19.0095 0.2422 1.5499 -8.8840 33.1476 -0.0000 26.2537 -3.1061 5.0868 -0.5925
 -2.7115 33.0735 -0.5607 8.8806 -3.7631 2.9230 -3.3654 -7.0455 -2.8713 -0.6246 0.0000 -0.0000 -10.5492 -6.3517 1.5619 5.7314 0.0000 -0.0000 -3.3216 6.6399 3.7264 2.6191 0.0000 -0.0000 -10.2050 6.3263 -10.3994 7.5153 -0.0000 0.0000 -8.0977 -1.6658 -1.0755 7.4736 -24.8756 -26.2736 -33.8948 -4.5923 36.2096 11.8117 0.0000 9.3029 -1.2003 12.6846 5.4505 32.8623 0.0000 -24.3270 -5.7653 26.0110 31.6004 -29.1241 4.9324 -32.1579 -0.7079 0.0000 19.0602 0.2532 1.5897 -9.0509 33.1476 -0.0000 26.2537 -3.0108 5.0707 -0.5719
 -2.7167 33.0754 -0.5771 8.8976 -3.7219 2.9238 -3.4263 -7.2182 -2.8589 -0.5989 -0.0000 -0.0000 -10.5444 -6.2353 1.5421 5.7543 -0.0000 -0.0000 -3.3976 6.6356 3.7351 2.6563 -0.0000 -0.0000 -10.1830 6.2793 -10.3764 7.4491 0.0000 0.0000 -8.1065 -1.7066 -1.1003 7.5831 -25.0085 -26.2211 -33.9505 -4.7532 36.3395 11.7238 0.0000 9.3445 -1.2035 12.4877 5.5490 32.8623 0.0000 -24.3270 -5.7127 26.0957 31.5832 -29.1775 5.0044 -32.2471 -0.6262 0.0000 19.1944 0.2555 1.5907 -9.1254 33.1476 -0.0000 26.2537 -2.9030 5.0545 -0.5797
 -2.7244 33.0773 -0.5935 8.9195 -3.7118 2.9142 -3.4509 -7.1791 -2.8384 -0.6368 0.0000 0.0000 -10.4938 -6.2614 1.5836 5.7391 -0.0000 0.0000 -3.4682 6.6732 3.7624 2.6817 -0.0000 -0.0000 -10.1724 6.2162 -10.3691 7.4445 0.0000 0.0000 -8.1156 -1.7133 -1.1244 7.7086 -25.1289 -26.1521 -33.8507 -4.8253 36.4723 11.5889 0.0000 9.2808 -1.1575 12.5561 5.3100 32.8623 0.0000 -24.3270 -5.7106 26.1374 31.6021 -29.1154 5.0268 -32.3268 -0.5380 0.0000 19.2097 0.2545 1.5840 -9.1284 33.1476 -0.0000 26.2537 -2.8201 5.0456 -0.5537
 -2.7305 33.0791 -0.6102 8.9372 -3.6881 2.9091 -3.4668 -7.1895 -2.8208 -0.6901 -0.0000 -0.0000 -10.4456 -6.2530 1.5966 5.7845 -0.0000 -0.0000 -3.5348 6.6914 3.7773 2.7048 -0.0000 -0.0000 -10.1568 6.1713 -10.3330 7.3312 -0.0000 -0.0000 -8.1221 -1.7383 -1.1457 7.8099 -25.2251 -26.0873 -33.7697 -4.9186 36.5717 11.5453 0.0000 9.1573 -1.1633 12.3760 5.4125 32.8623 0.0000 -24.3270 -5.7119 26.1422 31.6160 -28.9849 5.0843 -32.3756 -0.5345 0.0000 19.2294 0.2556 1.5756 -9.2166 33.1476 -0.0000 26.2537 -2.7378 4.9789 -0.5240
 -2.7373 33.0810 -0.6260 8.9544 -3.6717 2.9043 -3.4958 -7.1829 -2.8041 -0.7055 0.0000 -0.0000 -10.4390 -6.3042 1.6507 5.8710 -0.0000 0.0000 -3.5922 6.7234 3.7957 2.7120 0.0000 0.0000 -10.1338 6.0997 -10.3078 7.1794 -0.0000 0.0000 -8.1310 -1.7523 -1.1797 7.9057 -25.3143 -25.9998 -33.5591 -4.9009 36.6476 11.4666 0.0000 8.9996 -1.1266 12.5139 5.1859 32.8623 0.0000 -24.3270 -5.6791 26.1806 31.6402 -28.9226 5.1251 -32.4396 -0.5418 0.0000 19.2443 0.2597 1.5971 -9.2360 33.1476 -0.0000 26.2537 -2.6531 5.0085 -0.5222
 -2.7433 33.0834 -0.6428 8.9813 -3.6430 2.8977 -3.5380 -7.2287 -2.7904 -0.7256 0.0000 0.0000 -10.3963 -6.2610 1.6791 5.8980 0.0000 -0.0000 -3.6596 6.7215 3.8126 2.7155 0.0000 -0.0000 -10.1074 6.0505 -10.2744 7.0128 -0.0000 -0.0000 -8.1447 -1.7882 -1.2046 8.0092 -25.4215 -25.9008 -33.5398 -4.9262 36.7070 11.3840 0.0000 8.8674 -1.1912 12.4221 5.5212 32.8623 0.0000 -24.3270 -5.6473 26.2304 31.6562 -28.8811 5.1507 -32.4906 -0.5106 0.0000 19.2617 0.2575 1.5884 -9.2110 33.1476 -0.0000 26.2537 -2.5904 5.0097 -0.5146
 -2.7501 33.0846 -0.6599 8.9974 -3.6019 2.8935 -3.5611 -7.2802 -2.7716 -0.7639 -0.0000 -0.0000 -10.3384 -6.2098 1.6243 5.7186 0.0000 -0.0000 -3.7139 6.6758 3.8277 2.7179 -0.0000 0.0000 -10.0933 6.0177 -10.2335 6.8839 0.0000 -0.0000 -8.1451 -1.8330 -1.2360 8.0772 -25.5302 -25.8363 -33.5672 -5.0017 36.8053 11.2975 0.0000 8.8977 -1.1800 12.5117 5.4313 32.8623 0.0000 -24.3270 -5.6156 26.2723 31.6768 -28.8428 5.1563 -32.5257 -0.4754 0.0000 19.2388 0.2392 1.4636 -9.2845 33.1476 -0.0000 26.2537 -2.5374 5.0134 -0.4979
